<svg xmlns="http://www.w3.org/2000/svg" viewBox="0 0 478.06 110.72">
    <defs>
        <style>.cls-1,.cls-3{fill:#171717;}.cls-1{stroke:#231f20;stroke-miterlimit:10;}.cls-2{fill:#d81b61;}.cls-4{fill:#231f20;}</style>
    </defs>
    <title>Logo + Wordmark</title>
    <g id="Layer_2" data-name="Layer 2">
        <g id="Layer_1-2" data-name="Layer 1">
            <g id="Right">
                <g id="Use_with_Logo" data-name="Use with Logo">
                    <g id="Example_1" data-name="Example 1">
                        <g id="Logo">
                            <path id="BackgroundBG1" class="cls-1" d="M55.36,55.36h54.86A54.86,54.86,0,1,1,55.36.5Z"/>
                            <circle id="BackgroundAccent" class="cls-2" cx="55.36" cy="55.36" r="35.66"/>
                            <g id="Mouth">
                                <path class="cls-3" d="M67.91,40.32c3.59-.64,7.1,2.13,7.85,6.21s-1.56,7.92-5.15,8.58-7.09-2.13-7.85-6.2S64.32,41,67.91,40.32Z"/>
                                <path class="cls-3" d="M35.09,45.72c1-4,4.74-6.53,8.25-5.63S48.9,45,47.88,49s-4.73,6.53-8.25,5.63S34.07,49.73,35.09,45.72Z"/>
                                <g id="Group">
                                    <path class="cls-3" d="M58.51,63.39c-1.67.9-3.09,1.87-5,1.15a11.56,11.56,0,0,1-3.17-1.46c-.7-.51-1.48-.93-2.18-1.44-.37-.26-.72-.54-1.08-.8A1.85,1.85,0,0,0,46,60.33c-.42,0-1.26-.08-1.58.27C43,62.14,45,64.41,46,65.45a21.45,21.45,0,0,0,5.78,4.08c2,.86,4,1.89,6.06.84A41.07,41.07,0,0,0,64.19,66c1.34-1,4.35-2.82,3.82-4.82-.36-1.45-2.05-1.15-3.16-.8a24.22,24.22,0,0,0-3.95,1.8C60.1,62.53,59.31,63,58.51,63.39Z"/>
                                </g>
                            </g>
                        </g>
                        <path class="cls-4" d="M173.62,33.79a18.38,18.38,0,0,0-17.14.54A17.39,17.39,0,0,0,149.89,41a19.1,19.1,0,0,0,0,18.5,17.77,17.77,0,0,0,6.59,6.66,18,18,0,0,0,9.21,2.44,19.3,19.3,0,0,0,7.78-1.71,22.44,22.44,0,0,0,6.93-4.72l6.11,6.81a31.86,31.86,0,0,1-9.91,6.85,27.83,27.83,0,0,1-11.45,2.52,28.36,28.36,0,0,1-14.33-3.72,27.12,27.12,0,0,1-10.21-10.1,27.57,27.57,0,0,1-3.72-14.13,27,27,0,0,1,3.79-14.09,27.23,27.23,0,0,1,10.34-10A30,30,0,0,1,176.91,25a27.85,27.85,0,0,1,9.52,6.43l-6,7.58A20.39,20.39,0,0,0,173.62,33.79Z"/>
                        <path class="cls-4" d="M232.88,36.11V77.53H222.74V69.86q-4.17,8.06-14.4,8-7,0-11-4.26t-4-11.61V36.11h10.15v23a9.44,9.44,0,0,0,2.36,6.81,8.56,8.56,0,0,0,6.54,2.48A9.62,9.62,0,0,0,220,65a12.75,12.75,0,0,0,2.78-8.44V36.11Z"/>
                        <path class="cls-4" d="M263.73,44.55a19.93,19.93,0,0,0-5.92-1,8,8,0,0,0-4.06.89,3,3,0,0,0-1.51,2.75,3.26,3.26,0,0,0,1.89,3,31,31,0,0,0,6,2.21A57.15,57.15,0,0,1,267.26,55a13.43,13.43,0,0,1,4.83,3.79,10.16,10.16,0,0,1,2.06,6.62,10.65,10.65,0,0,1-4.65,9.29,19.89,19.89,0,0,1-11.69,3.25,29.6,29.6,0,0,1-9.37-1.51,22.15,22.15,0,0,1-7.74-4.29l3.49-7a20.43,20.43,0,0,0,6.65,3.76,22.38,22.38,0,0,0,7.36,1.35,8.77,8.77,0,0,0,4.45-1,3.13,3.13,0,0,0,1.66-2.9,3.5,3.5,0,0,0-1.93-3.25,34.57,34.57,0,0,0-6.27-2.4,53.57,53.57,0,0,1-6.81-2.44,12.25,12.25,0,0,1-4.57-3.64,10,10,0,0,1-1.94-6.38q0-6.12,4.45-9.33a18.66,18.66,0,0,1,11.19-3.22,28.58,28.58,0,0,1,8.09,1.17,24.72,24.72,0,0,1,7.08,3.25L270,47.33A30.08,30.08,0,0,0,263.73,44.55Z"/>
                        <path class="cls-4" d="M307,75a19.66,19.66,0,0,1-10.37,3,12.44,12.44,0,0,1-8.75-3.13q-3.41-3.14-3.41-9.26V45.17h-5.8l-.08-7.36h5.88V26.43h10V37.81h11.84v7.36H294.43V63.82a6.07,6.07,0,0,0,1.08,4.07,4.16,4.16,0,0,0,3.25,1.2,14.42,14.42,0,0,0,5.89-1.71Z"/>
                        <path class="cls-4" d="M343.94,38.43a19.12,19.12,0,0,1,7.66,7.39,21.57,21.57,0,0,1,2.75,11,21.91,21.91,0,0,1-2.75,11.07,19,19,0,0,1-7.66,7.43,23.62,23.62,0,0,1-11.35,2.63,24,24,0,0,1-11.45-2.63,18.84,18.84,0,0,1-7.71-7.43,21.9,21.9,0,0,1-2.74-11.07,21.57,21.57,0,0,1,2.74-11,19,19,0,0,1,7.71-7.39,24.09,24.09,0,0,1,11.45-2.63A23.74,23.74,0,0,1,343.94,38.43Zm-19.86,9.45a12.72,12.72,0,0,0-3.25,9A12.73,12.73,0,0,0,324.08,66a11.11,11.11,0,0,0,8.51,3.49A11,11,0,0,0,341,66a12.77,12.77,0,0,0,3.25-9.06,12.76,12.76,0,0,0-3.25-9,10.92,10.92,0,0,0-8.37-3.49A11.08,11.08,0,0,0,324.08,47.88Z"/>
                        <path class="cls-4" d="M428.43,40q4,4.29,4,11.65V77.53H422.32V54.61a9.53,9.53,0,0,0-2.44-6.93,8.82,8.82,0,0,0-6.62-2.51,9.94,9.94,0,0,0-7.63,3.48,12.6,12.6,0,0,0-2.82,8.44V77.53H392.67V54.61a9.64,9.64,0,0,0-2.4-6.93,8.69,8.69,0,0,0-6.58-2.51A10,10,0,0,0,376,48.65a12.6,12.6,0,0,0-2.82,8.44V77.53H363.09V36.11h10.07v7.66q4.09-7.89,14.55-8.05a15.38,15.38,0,0,1,9.1,2.6A13.53,13.53,0,0,1,402,45.63q3.94-9.75,15.4-9.91Q424.41,35.72,428.43,40Z"/>
                        <path class="cls-4" d="M468.15,77.53v-5a13.62,13.62,0,0,1-5.58,4.11A20.47,20.47,0,0,1,454.75,78a16.64,16.64,0,0,1-7.62-1.66,12.2,12.2,0,0,1-5.07-4.61,12.42,12.42,0,0,1-1.78-6.58,11,11,0,0,1,4.1-9.1q4.11-3.28,11.61-3.36h12.08V51.59a7,7,0,0,0-2.4-5.65q-2.4-2-7-2a24,24,0,0,0-12.31,3.87l-3.63-7a46.08,46.08,0,0,1,8.86-3.91,32.52,32.52,0,0,1,9.33-1.2q8,0,12.5,3.87T478,50.43l.08,27.1Zm-3.56-9.33a7.15,7.15,0,0,0,3.48-5.07V59.41H457.62q-4,0-5.92,1.2a4.26,4.26,0,0,0-1.9,3.91,5,5,0,0,0,2,4.18,8.52,8.52,0,0,0,5.38,1.55A13.17,13.17,0,0,0,464.59,68.2Z"/>
                    </g>
                </g>
            </g>
        </g>
    </g>
</svg>