<?xml version="1.0" encoding="utf-8"?>
<svg version="1.1" xmlns="http://www.w3.org/2000/svg" xmlns:xlink="http://www.w3.org/1999/xlink" x="0px" y="0px" viewBox="0 0 24 24" style="enable-background:new 0 0 24 24;" xml:space="preserve">
    <path d="M17,13.6h0.4c1.6,0,3.1-0.8,4-2l0.4,7.2c0.1,1.7-1.2,3.1-2.8,3.2c-0.1,0-0.1,0-0.2,0H5.2c-1.7,0-3-1.3-3-3
    c0-0.1,0-0.1,0-0.2l0.4-7.2c0.9,1.2,2.4,2,4,2H7V15h2v-1.4h6V15h2V13.6z M7,16v2h2v-2H7z M15,16v2h2v-2H15z M15,11.6H9V9H7v2.6H6.6
    c-1.7,0-3-1.3-3-3V5c0-1.7,1.3-3,3-3h10.8c1.7,0,3,1.3,3,3v3.6c0,1.7-1.3,3-3,3H17V9h-2V11.6z"/>
</svg>
