<?xml version="1.0" standalone="no"?><!-- Generator: Gravit.io --><svg xmlns="http://www.w3.org/2000/svg" xmlns:xlink="http://www.w3.org/1999/xlink" style="isolation:isolate" viewBox="0 0 24 18.5" width="24" height="18.5"><defs><clipPath id="_clipPath_Hy6LBVpkCn3hCmVD7S3t35Y3pUE7ggRX"><rect width="24" height="18.5"/></clipPath></defs><g clip-path="url(#_clipPath_Hy6LBVpkCn3hCmVD7S3t35Y3pUE7ggRX)"><g id="Group"><g id="Group"><path d=" M 2.081 6.2 C 2.081 5.763 1.709 5.399 1.264 5.399 L 0.818 5.399 C 0.372 5.399 0 5.763 0 6.2 C 0 6.637 0.372 7.002 0.818 7.002 L 1.264 7.002 C 1.709 7.002 2.081 6.637 2.081 6.2 Z " fill-rule="evenodd" fill="rgb(0,0,0)"/></g><path d=" M 16.574 6.71 L 18.06 9.187 C 18.135 9.333 18.135 9.406 18.06 9.552 L 16.574 12.029 C 16.499 12.174 16.351 12.174 16.276 12.174 L 13.378 12.174 C 13.229 12.174 13.155 12.102 13.081 12.029 L 11.594 9.552 C 11.52 9.406 11.52 9.333 11.594 9.187 L 13.081 6.71 C 13.155 6.565 13.304 6.565 13.378 6.565 L 16.276 6.565 C 16.425 6.492 16.499 6.565 16.574 6.71 Z " fill-rule="evenodd" fill="rgb(0,0,0)"/></g><path d=" M 22.222 5.982 C 20.885 3.141 18.06 1.465 15.088 1.319 L 6.689 1.319 C 5.946 1.319 5.426 1.902 5.426 2.558 C 5.426 3.286 6.02 3.796 6.689 3.796 L 8.844 3.796 C 9.29 3.796 9.662 4.161 9.662 4.598 C 9.662 5.035 9.29 5.399 8.844 5.399 L 3.568 5.399 C 3.122 5.399 2.75 5.763 2.75 6.201 C 2.75 6.638 3.122 7.002 3.568 7.002 L 7.358 7.002 C 7.804 7.002 8.176 7.366 8.176 7.803 C 8.176 8.241 7.804 8.605 7.358 8.605 L 4.98 8.605 C 4.534 8.605 4.162 8.969 4.162 9.406 C 4.162 9.843 4.534 10.208 4.98 10.208 L 6.615 10.208 C 6.689 11.082 6.912 11.956 7.284 12.757 C 9.142 16.764 14.047 18.513 18.135 16.692 C 22.371 14.797 24.155 9.989 22.222 5.982 Z  M 12.831 5.179 C 15.181 4.122 17.961 5.132 19.04 7.435 C 20.119 9.739 19.089 12.464 16.739 13.522 C 14.389 14.58 11.609 13.57 10.529 11.266 C 9.45 8.962 10.481 6.237 12.831 5.179 Z " fill-rule="evenodd" fill="rgb(0,0,0)"/></g></svg>