<?xml version="1.0" standalone="no"?><!-- Generator: Gravit.io --><svg xmlns="http://www.w3.org/2000/svg" xmlns:xlink="http://www.w3.org/1999/xlink" style="isolation:isolate" viewBox="0 0 24 24" width="24" height="24"><defs><clipPath id="_clipPath_3wMFs5LydKXJmz7tsLc9gmxqIg3qYBt3"><rect width="24" height="24"/></clipPath></defs><g clip-path="url(#_clipPath_3wMFs5LydKXJmz7tsLc9gmxqIg3qYBt3)"><path d=" M 23.422 6.81 L 13.979 13.009 C 13.816 13.114 13.685 13.261 13.598 13.434 L 12.159 16.321 C 12.116 16.418 12.019 16.482 11.912 16.482 C 11.806 16.482 11.709 16.418 11.666 16.321 L 10.227 13.434 C 10.14 13.261 10.008 13.114 9.846 13.009 L 0.403 6.81 C 0.304 6.693 0.129 6.678 0.011 6.777 C -0.106 6.875 -0.121 7.051 -0.022 7.168 L 3.924 14.844 C 3.963 14.925 3.96 15.02 3.918 15.1 C 3.875 15.179 3.797 15.234 3.707 15.246 L 1.335 15.246 C 1.215 15.245 1.108 15.322 1.071 15.436 C 1.033 15.551 1.074 15.676 1.171 15.746 L 11.748 23.325 C 11.847 23.392 11.978 23.392 12.077 23.325 L 22.654 15.746 C 22.751 15.676 22.792 15.551 22.754 15.436 C 22.717 15.322 22.61 15.245 22.489 15.246 L 20.117 15.246 C 20.023 15.243 19.936 15.192 19.886 15.111 C 19.837 15.03 19.831 14.93 19.871 14.844 L 23.847 7.168 C 23.946 7.051 23.931 6.875 23.813 6.777 C 23.696 6.678 23.521 6.693 23.422 6.81 Z " fill="rgb(0,0,0)"/><path d=" M 12.121 1.126 L 13.091 3.103 C 13.126 3.169 13.189 3.216 13.263 3.23 L 15.448 3.543 C 15.535 3.556 15.608 3.617 15.635 3.701 C 15.662 3.785 15.638 3.877 15.575 3.938 L 13.994 5.475 C 13.942 5.529 13.917 5.603 13.926 5.676 L 14.299 7.847 C 14.316 7.932 14.282 8.02 14.211 8.071 C 14.141 8.122 14.047 8.128 13.971 8.086 L 12.017 7.064 C 11.952 7.026 11.873 7.026 11.808 7.064 L 9.854 8.086 C 9.778 8.128 9.684 8.122 9.613 8.071 C 9.543 8.02 9.509 7.932 9.525 7.847 L 9.898 5.676 C 9.908 5.603 9.883 5.529 9.831 5.475 L 8.25 3.938 C 8.186 3.877 8.163 3.785 8.19 3.701 C 8.217 3.617 8.289 3.556 8.377 3.543 L 10.562 3.237 C 10.636 3.223 10.699 3.177 10.734 3.11 L 11.704 1.134 C 11.74 1.052 11.821 1 11.91 0.998 C 11.999 0.996 12.082 1.046 12.121 1.126 Z " fill="rgb(0,0,0)"/></g></svg>