<?xml version="1.0" standalone="no"?><!-- Generator: Gravit.io --><svg xmlns="http://www.w3.org/2000/svg" xmlns:xlink="http://www.w3.org/1999/xlink" style="isolation:isolate" viewBox="0 0 24 24" width="24" height="24"><defs><clipPath id="_clipPath_c7DWDDtEhSClLIKmoDIBvnayVnjVynW0"><rect width="24" height="24"/></clipPath></defs><g clip-path="url(#_clipPath_c7DWDDtEhSClLIKmoDIBvnayVnjVynW0)"><path d=" M 16.826 7.58 C 16.71 3.34 13.392 1.628 9.115 1.628 L 0.821 1.628 L 0.821 10.198 L 6.125 14.974 L 6.125 5.888 L 9.209 5.888 C 12.503 5.888 12.503 10.027 9.209 10.027 L 7.171 10.027 L 7.171 13.981 L 9.209 13.981 C 12.503 13.981 12.503 18.119 9.209 18.119 L 0.821 18.119 L 0.821 22.378 L 9.115 22.378 C 13.391 22.378 16.709 20.666 16.826 16.426 C 16.826 14.474 16.292 13.016 15.352 12.002 C 16.292 10.99 16.826 9.532 16.826 7.58 Z " fill="rgb(0,0,0)"/><path d=" M 15.15 1.622 L 15.15 1.622 L 14.228 1.622 C 14.548 1.782 14.849 1.96 15.128 2.154 C 15.977 2.743 16.642 3.492 17.104 4.378 C 17.582 5.297 17.842 6.365 17.875 7.553 L 17.875 7.567 L 17.875 7.582 C 17.875 9.275 17.875 14.735 17.875 16.427 L 17.875 16.441 L 17.875 16.456 C 17.843 17.644 17.584 18.712 17.104 19.631 C 16.642 20.516 15.978 21.265 15.128 21.854 C 14.857 22.043 14.566 22.216 14.257 22.372 L 15.127 22.372 C 19.282 22.394 23.179 20.317 23.179 15.557 L 23.179 8.6 C 23.202 3.746 19.304 1.622 15.15 1.622 Z " fill="rgb(0,0,0)"/></g></svg>