<?xml version="1.0" standalone="no"?><!-- Generator: Gravit.io --><svg xmlns="http://www.w3.org/2000/svg" xmlns:xlink="http://www.w3.org/1999/xlink" style="isolation:isolate" viewBox="0 0 24 24" width="24" height="24"><defs><clipPath id="_clipPath_nFTB4yX308EYYy20YEBemXkKdhVjLAFV"><rect width="24" height="24"/></clipPath></defs><g clip-path="url(#_clipPath_nFTB4yX308EYYy20YEBemXkKdhVjLAFV)"><path d=" M 12 0 C 5.37 0 0 5.37 0 12 C 0 17.31 3.435 21.795 8.205 23.385 C 8.805 23.49 9.03 23.13 9.03 22.815 C 9.03 22.53 9.015 21.585 9.015 20.58 C 6 21.135 5.22 19.845 4.98 19.17 C 4.845 18.825 4.26 17.76 3.75 17.475 C 3.33 17.25 2.73 16.695 3.735 16.68 C 4.68 16.665 5.355 17.55 5.58 17.91 C 6.66 19.725 8.385 19.215 9.075 18.9 C 9.18 18.12 9.495 17.595 9.84 17.295 C 7.17 16.995 4.38 15.96 4.38 11.37 C 4.38 10.065 4.845 8.985 5.61 8.145 C 5.49 7.845 5.07 6.615 5.73 4.965 C 5.73 4.965 6.735 4.65 9.03 6.195 C 9.99 5.925 11.01 5.79 12.03 5.79 C 13.05 5.79 14.07 5.925 15.03 6.195 C 17.325 4.635 18.33 4.965 18.33 4.965 C 18.99 6.615 18.57 7.845 18.45 8.145 C 19.215 8.985 19.68 10.05 19.68 11.37 C 19.68 15.975 16.875 16.995 14.205 17.295 C 14.64 17.67 15.015 18.39 15.015 19.515 C 15.015 21.12 15 22.41 15 22.815 C 15 23.13 15.225 23.505 15.825 23.385 C 20.71 21.736 23.999 17.156 24 12 C 24 5.37 18.63 0 12 0 Z " fill-rule="evenodd" fill="rgb(0,0,0)"/></g></svg>