<?xml version="1.0" standalone="no"?><!-- Generator: Gravit.io --><svg xmlns="http://www.w3.org/2000/svg" xmlns:xlink="http://www.w3.org/1999/xlink" style="isolation:isolate" viewBox="0 0 24 24" width="24" height="24"><defs><clipPath id="_clipPath_mCFrjhJ4OdPFiADR1FxtcdCDlPslwS0e"><rect width="24" height="24"/></clipPath></defs><g clip-path="url(#_clipPath_mCFrjhJ4OdPFiADR1FxtcdCDlPslwS0e)"><path d=" M 21.678 11.154 C 21.647 11.985 21.525 12.81 21.313 13.615 C 21.116 14.383 20.793 15.114 20.356 15.776 C 19.93 16.408 19.39 16.921 18.734 17.311 C 18.074 17.7 17.286 17.896 16.365 17.896 C 15.719 17.896 15.148 17.755 14.652 17.476 C 14.157 17.197 13.772 16.803 13.495 16.29 C 12.725 17.329 11.688 17.849 10.39 17.849 C 9.823 17.849 9.307 17.722 8.842 17.471 C 8.371 17.213 7.972 16.842 7.681 16.392 C 7.35 15.877 7.121 15.304 7.007 14.703 C 6.866 13.978 6.837 13.235 6.919 12.501 C 7.035 11.511 7.26 10.609 7.59 9.804 C 7.92 8.997 8.332 8.308 8.83 7.738 C 9.325 7.167 9.894 6.727 10.535 6.421 C 11.182 6.113 11.891 5.955 12.608 5.96 C 13.081 5.96 13.493 5.996 13.848 6.066 C 14.203 6.137 14.522 6.234 14.81 6.355 C 15.099 6.478 15.363 6.616 15.608 6.775 C 15.851 6.932 16.096 7.094 16.339 7.259 L 15.737 14.188 C 15.696 14.521 15.704 14.79 15.755 14.999 C 15.806 15.205 15.888 15.374 16.002 15.499 C 16.116 15.626 16.25 15.712 16.404 15.761 C 16.89 15.916 17.423 15.811 17.814 15.483 C 18.103 15.249 18.357 14.929 18.57 14.521 C 18.782 14.111 18.951 13.627 19.079 13.074 C 19.203 12.519 19.278 11.92 19.302 11.273 C 19.365 10.046 19.27 8.923 19.018 7.908 C 18.765 6.894 18.35 6.025 17.773 5.304 C 17.177 4.571 16.41 3.995 15.54 3.627 C 14.633 3.231 13.547 3.032 12.288 3.032 C 11.092 3.032 10.019 3.266 9.071 3.733 C 8.127 4.199 7.293 4.862 6.626 5.677 C 5.922 6.548 5.38 7.538 5.026 8.601 C 4.641 9.721 4.417 10.938 4.353 12.244 C 4.291 13.66 4.405 14.897 4.696 15.961 C 4.988 17.025 5.439 17.913 6.055 18.626 C 6.676 19.343 7.467 19.893 8.356 20.226 C 9.277 20.579 10.335 20.756 11.531 20.756 C 12.232 20.749 12.93 20.674 13.616 20.532 C 13.959 20.464 14.285 20.381 14.596 20.29 C 14.906 20.198 15.187 20.098 15.44 19.988 L 15.876 21.948 C 15.601 22.127 15.285 22.284 14.931 22.416 C 14.566 22.547 14.194 22.655 13.815 22.739 C 13.049 22.91 12.268 22.997 11.483 23 C 9.886 23 8.469 22.772 7.233 22.315 C 5.998 21.859 4.964 21.18 4.134 20.278 C 3.304 19.378 2.684 18.257 2.274 16.914 C 1.866 15.572 1.692 14.013 1.754 12.244 C 1.826 10.63 2.123 9.137 2.648 7.762 C 3.17 6.39 3.888 5.205 4.801 4.202 C 5.721 3.199 6.839 2.399 8.085 1.852 C 9.355 1.283 10.771 1 12.338 1 C 13.897 1 15.271 1.247 16.46 1.738 C 17.648 2.23 18.64 2.921 19.435 3.814 C 20.229 4.708 20.818 5.777 21.2 7.021 C 21.582 8.266 21.742 9.643 21.678 11.154 Z  M 9.872 12.501 C 9.786 13.523 9.865 14.297 10.114 14.82 C 10.362 15.343 10.76 15.604 11.31 15.604 C 11.45 15.601 11.588 15.575 11.72 15.528 C 11.871 15.477 12.031 15.383 12.191 15.245 C 12.354 15.108 12.513 14.915 12.67 14.668 C 12.829 14.42 12.975 14.093 13.11 13.692 L 13.58 8.308 C 13.346 8.245 13.099 8.212 12.848 8.212 C 12.376 8.212 11.971 8.308 11.632 8.491 C 11.281 8.688 10.984 8.969 10.77 9.31 C 10.512 9.728 10.319 10.182 10.198 10.658 C 10.052 11.194 9.944 11.805 9.874 12.5 L 9.872 12.501 Z " fill="rgb(0,0,0)"/></g></svg>