<?xml version="1.0" standalone="no"?><!-- Generator: Gravit.io --><svg xmlns="http://www.w3.org/2000/svg" xmlns:xlink="http://www.w3.org/1999/xlink" style="isolation:isolate" viewBox="0 0 24 24" width="24" height="24"><defs><clipPath id="_clipPath_VqvrAHXXsV737JjYnNWaGGGyt4EO5Jnc"><rect width="24" height="24"/></clipPath></defs><g clip-path="url(#_clipPath_VqvrAHXXsV737JjYnNWaGGGyt4EO5Jnc)"><g id="Group"><path d=" M 1.5 0 L 0 4.5 L 0 21 L 6 21 L 6 24 L 9 24 L 12 21 L 16.5 21 L 22.5 14.61 L 22.5 0 L 1.5 0 Z  M 21 13.5 L 16.8 18 L 11.481 18 L 8.25 20.351 L 8.25 18 L 3 18 L 3 1.5 L 21 1.5 L 21 13.5 Z " fill="rgb(0,0,0)"/><rect x="10.5" y="6" width="1.5" height="6" transform="matrix(1,0,0,1,0,0)" fill="rgb(0,0,0)"/><rect x="15" y="6" width="1.5" height="6" transform="matrix(1,0,0,1,0,0)" fill="rgb(0,0,0)"/></g></g></svg>