<?xml version="1.0" encoding="utf-8"?>
<!-- Generator: Adobe Illustrator 22.1.0, SVG Export Plug-In . SVG Version: 6.00 Build 0)  -->
<svg version="1.1" id="Layer_1" xmlns="http://www.w3.org/2000/svg" xmlns:xlink="http://www.w3.org/1999/xlink" x="0px" y="0px"
	 viewBox="0 0 1080 540" style="enable-background:new 0 0 1080 540;" xml:space="preserve">
<style type="text/css">
	.st0{fill:#FFFFFF;}
</style>
<g transform="translate(-96 -100)">
	<path class="st0" d="M142.8,181l142.8,142.8L142.8,466.7L0,323.8L142.8,181z"/>
	<circle class="st0" cx="508.5" cy="116.5" r="116.5"/>
	<circle class="st0" cx="925.5" cy="736.5" r="116.5"/>
	<circle class="st0" cx="883" cy="100" r="4"/>
	<circle class="st0" cx="859" cy="100" r="4"/>
	<circle class="st0" cx="835" cy="100" r="4"/>
	<circle class="st0" cx="811" cy="100" r="4"/>
	<circle class="st0" cx="907" cy="100" r="4"/>
	<circle class="st0" cx="931" cy="100" r="4"/>
	<circle class="st0" cx="955" cy="100" r="4"/>
	<circle class="st0" cx="883" cy="124" r="4"/>
	<circle class="st0" cx="859" cy="124" r="4"/>
	<circle class="st0" cx="835" cy="124" r="4"/>
	<circle class="st0" cx="811" cy="124" r="4"/>
	<circle class="st0" cx="907" cy="124" r="4"/>
	<circle class="st0" cx="931" cy="124" r="4"/>
	<circle class="st0" cx="955" cy="124" r="4"/>
	<circle class="st0" cx="883" cy="148" r="4"/>
	<circle class="st0" cx="859" cy="148" r="4"/>
	<circle class="st0" cx="835" cy="148" r="4"/>
	<circle class="st0" cx="811" cy="148" r="4"/>
	<circle class="st0" cx="907" cy="148" r="4"/>
	<circle class="st0" cx="931" cy="148" r="4"/>
	<circle class="st0" cx="955" cy="148" r="4"/>
	<circle class="st0" cx="883" cy="172" r="4"/>
	<circle class="st0" cx="859" cy="172" r="4"/>
	<circle class="st0" cx="835" cy="172" r="4"/>
	<circle class="st0" cx="811" cy="172" r="4"/>
	<circle class="st0" cx="907" cy="172" r="4"/>
	<circle class="st0" cx="931" cy="172" r="4"/>
	<circle class="st0" cx="955" cy="172" r="4"/>
	<circle class="st0" cx="884" cy="196" r="4"/>
	<circle class="st0" cx="860" cy="196" r="4"/>
	<circle class="st0" cx="836" cy="196" r="4"/>
	<circle class="st0" cx="812" cy="196" r="4"/>
	<circle class="st0" cx="908" cy="196" r="4"/>
	<circle class="st0" cx="932" cy="196" r="4"/>
	<circle class="st0" cx="956" cy="196" r="4"/>
	<circle class="st0" cx="884" cy="220" r="4"/>
	<circle class="st0" cx="860" cy="220" r="4"/>
	<circle class="st0" cx="836" cy="220" r="4"/>
	<circle class="st0" cx="812" cy="220" r="4"/>
	<circle class="st0" cx="908" cy="220" r="4"/>
	<circle class="st0" cx="932" cy="220" r="4"/>
	<circle class="st0" cx="956" cy="220" r="4"/>
	<path class="st0" d="M1067.8,44.6l62.1-31.6l181,355.3l-62.1,31.6c-9.5,4.8-21.1,1.1-25.9-8.4c-2.7-5.4-2.8-11.7-0.2-17.1
		c10.4-21.6,1.4-47.5-20.2-58c-3.6-1.7-7.3-3-11.2-3.6l-2.3-0.4c-21.3-3.8-35.4-24.2-31.6-45.4c0.8-4.3,2.2-8.4,4.4-12.2
		c10.5-18.9,3.8-42.7-15.1-53.2c-3.8-2.1-7.9-3.6-12.2-4.4l-4.7-0.8c-21.3-3.8-35.4-24.2-31.6-45.4c0.8-4.3,2.2-8.4,4.4-12.2
		c10.5-18.9,3.8-42.7-15.1-53.2c-3.8-2.1-7.9-3.6-12.2-4.4l-2.3-0.4c-10.5-1.9-17.4-11.9-15.5-22.3
		C1058.7,52.4,1062.5,47.4,1067.8,44.6L1067.8,44.6z M787,391l63,126H724L787,391z M587,547v87H244v-87H587z"/>
</g>
</svg>
