<?xml version="1.0" standalone="no"?><!-- Generator: Gravit.io --><svg xmlns="http://www.w3.org/2000/svg" xmlns:xlink="http://www.w3.org/1999/xlink" style="isolation:isolate" viewBox="0 0 40 40" width="40" height="40"><defs><clipPath id="_clipPath_ZX3yMQfKbHagiEIhiB87C2FsSMhx0jWR"><rect width="40" height="40"/></clipPath></defs><g clip-path="url(#_clipPath_ZX3yMQfKbHagiEIhiB87C2FsSMhx0jWR)"><path d=" M 21.226 30 L 21.226 25.846 L 17.471 25.846 L 17.471 30 L 21.226 30 L 21.226 30 Z  M 20.714 21.38 C 24.384 20.043 26.432 18.421 26.432 15.235 C 26.432 11.963 24.071 10 20.344 10 C 17.755 10 15.707 10.825 14 12.048 L 14.484 15.349 C 16.105 14.097 17.954 13.186 19.974 13.186 C 21.681 13.186 22.819 14.04 22.819 15.491 C 22.819 17.084 21.738 17.966 19.007 18.933 L 18.125 19.275 L 18.467 23.798 L 20.543 23.343 L 20.714 21.38 L 20.714 21.38 Z " fill-rule="evenodd" fill="rgb(79,84,92)" fill-opacity="0.8"/><path d="M 6 1 L 34 1 C 36.76 1 39 3.24 39 6 L 39 34 C 39 36.76 36.76 39 34 39 L 6 39 C 3.24 39 1 36.76 1 34 L 1 6 C 1 3.24 3.24 1 6 1 Z" style="fill:none;stroke:#4F545C;stroke-width:2;opacity:0.4;"/><path d=" M 5 7 C 5 5.896 5.896 5 7 5 C 8.104 5 9 5.896 9 7 C 9 8.104 8.104 9 7 9 C 5.896 9 5 8.104 5 7 Z " fill="rgb(79,84,92)" fill-opacity="0.4"/><path d=" M 5 33 C 5 31.896 5.896 31 7 31 C 8.104 31 9 31.896 9 33 C 9 34.104 8.104 35 7 35 C 5.896 35 5 34.104 5 33 Z " fill="rgb(79,84,92)" fill-opacity="0.4"/><path d=" M 31 7 C 31 5.896 31.896 5 33 5 C 34.104 5 35 5.896 35 7 C 35 8.104 34.104 9 33 9 C 31.896 9 31 8.104 31 7 Z " fill="rgb(79,84,92)" fill-opacity="0.4"/><path d=" M 31 33 C 31 31.896 31.896 31 33 31 C 34.104 31 35 31.896 35 33 C 35 34.104 34.104 35 33 35 C 31.896 35 31 34.104 31 33 Z " fill="rgb(79,84,92)" fill-opacity="0.4"/></g></svg>