<?xml version="1.0" standalone="no"?><!-- Generator: Gravit.io --><svg xmlns="http://www.w3.org/2000/svg" xmlns:xlink="http://www.w3.org/1999/xlink" style="isolation:isolate" viewBox="0 0 24 24" width="24" height="24"><defs><clipPath id="_clipPath_0mlIdQfYnYSEZC1MfVk80Qv9SKmVqeFt"><rect width="24" height="24"/></clipPath></defs><g clip-path="url(#_clipPath_0mlIdQfYnYSEZC1MfVk80Qv9SKmVqeFt)"><rect x="0" y="0" width="24" height="24" transform="matrix(1,0,0,1,0,0)" fill="none"/><path d=" M 4 21 C 3.448 21 3 20.552 3 20 C 3 10.611 10.611 3 20 3 C 20.265 3 20.52 3.105 20.707 3.293 C 20.895 3.48 21 3.735 21 4 L 21 7.5 C 21 8.052 20.552 8.5 20 8.5 C 18.76 8.5 17.55 8.7 16.43 9.07 C 16.08 9.18 15.69 9.1 15.41 8.82 L 13.21 6.62 C 10.38 8.06 8.07 10.38 6.62 13.21 L 8.82 15.42 C 9.1 15.69 9.18 16.08 9.07 16.43 C 8.7 17.55 8.5 18.76 8.5 20 C 8.5 20.552 8.052 21 7.5 21 M 19.121 20.536 L 17 18.414 L 14.879 20.536 L 13.464 19.121 L 15.586 17 L 13.464 14.879 L 14.879 13.464 L 17 15.586 L 19.121 13.464 L 20.536 14.879 L 18.414 17 L 20.536 19.121" fill-rule="evenodd" fill="rgb(79,84,92)"/></g></svg>