<?xml version="1.0" standalone="no"?><!-- Generator: Gravit.io --><svg xmlns="http://www.w3.org/2000/svg" xmlns:xlink="http://www.w3.org/1999/xlink" style="isolation:isolate" viewBox="0 0 24 24" width="24" height="24"><defs><clipPath id="_clipPath_66kjE8n5OVj2raUdYz7sxG5AgUc8642e"><rect width="24" height="24"/></clipPath></defs><g clip-path="url(#_clipPath_66kjE8n5OVj2raUdYz7sxG5AgUc8642e)"><rect x="0" y="0" width="24" height="24" transform="matrix(1,0,0,1,0,0)" fill="none"/><path d=" M 12 3 C 13.657 3 15 4.343 15 6 L 15 12 C 15 13.657 13.657 15 12 15 C 10.343 15 9 13.657 9 12 L 9 6 C 9 4.343 10.343 3 12 3 L 12 3 Z  M 19 12 C 19 15.53 16.39 18.44 13 18.93 L 13 22 L 11 22 L 11 18.93 C 7.61 18.44 5 15.53 5 12 L 7 12 C 7 14.761 9.239 17 12 17 C 14.761 17 17 14.761 17 12 L 19 12 L 19 12 Z " fill-rule="evenodd" fill="rgb(79,84,92)"/></g></svg>