<?xml version="1.0" standalone="no"?><!-- Generator: Gravit.io --><svg xmlns="http://www.w3.org/2000/svg" xmlns:xlink="http://www.w3.org/1999/xlink" style="isolation:isolate" viewBox="0 0 24 24" width="24" height="24"><defs><clipPath id="_clipPath_n4zOSmBmsmy1MT0lQORVywPJoN31EgBN"><rect width="24" height="24"/></clipPath></defs><g clip-path="url(#_clipPath_n4zOSmBmsmy1MT0lQORVywPJoN31EgBN)"><rect x="0" y="0" width="24" height="24" transform="matrix(1,0,0,1,0,0)" fill="none"/><g id="Group"><path d=" M 19 12 C 19 13.19 18.66 14.3 18.1 15.28 L 16.87 14.05 C 17.14 13.43 17.3 12.74 17.3 12 L 19 12 L 19 12 Z  M 15 12.16 L 9 6.18 L 9 6 C 9 4.343 10.343 3 12 3 C 13.657 3 15 4.343 15 6 L 15 12 L 15 12.16 L 15 12.16 Z  M 15.54 17.81 C 14.77 18.27 13.91 18.58 13 18.72 L 13 22 L 11 22 L 11 18.72 C 7.72 18.23 5 15.41 5 12 L 6.7 12 C 6.7 15 9.24 17.1 12 17.1 C 12.81 17.1 13.6 16.91 14.31 16.58 L 12.65 14.92 L 12 15 C 10.343 15 9 13.657 9 12 L 9 11.28 L 15.54 17.81 Z " fill-rule="evenodd" fill="rgb(79,84,92)"/><path d=" M 4.27 4 L 21 20.73 L 19.73 22 L 3 5.27 L 4.27 4 Z " fill-rule="evenodd" fill="rgb(240,71,71)"/></g></g></svg>