<?xml version="1.0" standalone="no"?><!-- Generator: Gravit.io --><svg xmlns="http://www.w3.org/2000/svg" xmlns:xlink="http://www.w3.org/1999/xlink" style="isolation:isolate" viewBox="0 0 18 18" width="18" height="18"><defs><clipPath id="_clipPath_Jibb5IE2xppp4BPJycLGczBOwcj3qp1N"><rect width="18" height="18"/></clipPath></defs><g clip-path="url(#_clipPath_Jibb5IE2xppp4BPJycLGczBOwcj3qp1N)"><path d=" M 15.75 2.25 L 2.25 2.25 C 1.418 2.25 0.75 2.918 0.75 3.75 L 0.75 12.75 C 0.75 13.575 1.418 14.25 2.25 14.25 L 6 14.25 L 6 15.75 L 12 15.75 L 12 14.25 L 15.75 14.25 C 16.575 14.25 17.243 13.575 17.243 12.75 L 17.25 3.75 C 17.25 2.918 16.575 2.25 15.75 2.25 Z  M 15.75 12.75 L 2.25 12.75 L 2.25 3.75 L 15.75 3.75 L 15.75 12.75 L 15.75 12.75 Z " fill="rgb(79,84,92)"/><path d=" M 0 0 L 18 0 L 18 18 L 0 18 L 0 0 Z " fill-rule="evenodd" fill="none"/></g></svg>