<?xml version="1.0" standalone="no"?><!-- Generator: Gravit.io --><svg xmlns="http://www.w3.org/2000/svg" xmlns:xlink="http://www.w3.org/1999/xlink" style="isolation:isolate" viewBox="0 0 24 24" width="24" height="24"><defs><clipPath id="_clipPath_xqOZoyWXLFf2jy5BR3cDLy43wpey7m4x"><rect width="24" height="24"/></clipPath></defs><g clip-path="url(#_clipPath_xqOZoyWXLFf2jy5BR3cDLy43wpey7m4x)"><rect x="0" y="0" width="24" height="24" transform="matrix(1,0,0,1,0,0)" fill="none"/><path d=" M 3 11 C 3 6 7 2 12 2 L 12 4 C 8.134 4 5 7.134 5 11 L 5 13 L 9 13 L 9 21 L 6 21 C 4.343 21 3 19.657 3 18 L 3 11 L 3 11 Z  M 21 11 L 21 18 C 21 19.657 19.657 21 18 21 L 15 21 L 15 13 L 19 13 L 19 11 C 19 7.134 15.866 4 12 4 L 12 2 C 17 2 21 6 21 11 Z " fill-rule="evenodd" fill="rgb(79,84,92)"/></g></svg>