<?xml version="1.0" standalone="no"?><!-- Generator: Gravit.io --><svg xmlns="http://www.w3.org/2000/svg" xmlns:xlink="http://www.w3.org/1999/xlink" style="isolation:isolate" viewBox="0 0 24 24" width="24" height="24"><defs><clipPath id="_clipPath_9Fn67YrYcluTbO3b7jiTFiB8o2EZK8Pc"><rect width="24" height="24"/></clipPath></defs><g clip-path="url(#_clipPath_9Fn67YrYcluTbO3b7jiTFiB8o2EZK8Pc)"><path d=" M 3.57 7.84 C 3.2 8.82 3 9.89 3 11 L 3 19 C 3 20.657 5 21 5 21 L 9 21 L 9 13.27 L 15 19.27 L 15 21 L 16.73 21 L 19.23 23.5 L 3.57 7.84 Z  M 12 2 C 9.47 2 7.18 3.04 5.55 4.72 L 6.96 6.14 C 8.23 4.82 10 4 12 4 C 15.866 4 19 7.134 19 11 L 19 13 L 15 13 L 15 14.18 L 20.5 19.67 C 20.81 19.19 21 18.62 21 18 L 21 11 C 21 6.029 16.971 2 12 2 L 12 2 Z  M 5 13 L 5 11 C 5 10.46 5.06 9.94 5.17 9.44 L 8.73 13 L 5 13 Z " fill-rule="evenodd" fill="rgb(79,84,92)"/><path d=" M 18.73 23.5 L 20 22.22 L 2.28 4.5 L 1 5.77 L 18.73 23.5 Z " fill-rule="evenodd" fill="rgb(240,71,71)"/></g></svg>